<svg xmlns="http://www.w3.org/2000/svg" version="1.1" xmlns:xlink="http://www.w3.org/1999/xlink" width="2000" height="561" viewBox="0 0 2000 561"><svg xml:space="preserve" width="2000" height="561" data-version="2" data-id="lg_p4FQrWGC73U4jq79TL" viewBox="0 0 573 561" x="0" y="0"><rect width="100%" height="100%" fill="transparent"></rect><path fill="#ee297b" stroke="#faf58c" stroke-width="29.556" d="M242.137 402.4 98.788 421.862l71.75-125.613-62.813-130.322 141.64 29.417 104.536-99.997 15.793 143.796 127.405 68.512-131.875 59.458-25.789 142.342z"></path><path fill="#ed83b7" d="M248.907 367.038 137.5 382.163l55.763-97.624-48.817-101.284 110.08 22.863 81.244-77.716 12.273 111.755 99.017 53.246-102.49 46.21-20.043 110.626z"></path><path fill="#f3e3e4" d="m257.63 343.423-84.142 11.424 42.114-73.731-36.87-76.494 83.138 17.265 61.358-58.696 9.271 84.403 74.784 40.213-77.406 34.902-15.136 83.55z"></path><path fill="none" stroke="#faf58c" stroke-width="2.52" d="M379.75 432.924q-19.4 0-30.69-10.69-11.28-10.69-11.28-31.28v-55.84q0-41.97 12.67-63.75t32.08-31.29l-1.98-7.52h-6.74q-18.21 0-28.71-11.68-10.49-11.69-10.89-31.88-.39-19.8 10.5-31.68 10.89-11.88 29.1-11.88h138.6q42.38 0 42.38 39.6 0 17.82-10.3 28.51-10.3 10.69-32.08 10.69h-77.22q-14.65 0-14.65 17.03v28.51q18.61-5.15 38.81-11.88 20.2-6.73 38.81-6.73 19.8 0 30.69 9.7t10.89 29.5q0 19.41-10.89 29.11t-30.69 10.1q-18.61.39-39.01-6.14-20.39-6.53-39-11.68l-.4 79.2q0 20.59-10.89 31.28-10.89 10.69-29.11 10.69Z"></path><path fill="#ee297b" d="M379.75 432.924q-19.4 0-30.69-10.69-11.28-10.69-11.28-31.28v-55.84q0-41.97 12.67-63.75t32.08-31.29l-1.98-7.52h-6.74q-18.21 0-28.71-11.68-10.49-11.69-10.89-31.88-.39-19.8 10.5-31.68 10.89-11.88 29.1-11.88h138.6q42.38 0 42.38 39.6 0 17.82-10.3 28.51-10.3 10.69-32.08 10.69h-77.22q-14.65 0-14.65 17.03v28.51q18.61-5.15 38.81-11.88 20.2-6.73 38.81-6.73 19.8 0 30.69 9.7t10.89 29.5q0 19.41-10.89 29.11t-30.69 10.1q-18.61.39-39.01-6.14-20.39-6.53-39-11.68l-.4 79.2q0 20.59-10.89 31.28-10.89 10.69-29.11 10.69"></path></svg></svg>